# xmcd
#
# Track frame offsets:
#	150
#	11306
#	20728
#	31790
#	41349
#	52672
#	63801
#	76029
#	85308
#	97773
#	107125
#	118889
#	130114
#	141063
#	155959
#	166091
#	178099
#	190321
#	202627
#	213348
#	226381
#	239686
#	250838
#	262484
#
# Disc length: 3653 seconds
#
# Revision: 1
# Processed by: cddbd v1.5.2PL0 Copyright (c) Steve Scherf et al.
# Submitted via: audiograbber 1.83.01
#
DISCID=390e4318
DTITLE=Faron Young - Mercury Hit Singles-1963 - 1975
DYEAR=2002
DGENRE=Country
TTITLE0=Yellow Bandana
TTITLE1=Nightmare
TTITLE2=We've Got Something In Common
TTITLE3=You'll Drive Me Back (Into Her Arms Again)
TTITLE4=Keepin up with the Jones's
TTITLE5=My Friend On The Right
TTITLE6=Walk Tall (Walk Straight)
TTITLE7=My Dreams
TTITLE8=Unmitigated Gall
TTITLE9=Wonderful World of Women
TTITLE10=She Went a Little Bit Farther
TTITLE11=I Just Came To Get My Baby
TTITLE12=Wine Me Up
TTITLE13=Your Time's Comin'
TTITLE14=Occasional Wife
TTITLE15=If I Ever Fall in Love with a Honky Tonk Girl
TTITLE16=Going Steady
TTITLE17=Step Aside
TTITLE18=Leavin' And Sayin' Goodbye
TTITLE19=It's Four In The Morning
TTITLE20=This Little Girl Of Mine
TTITLE21=Just What I Had in Mind
TTITLE22=Some Kind Of Woman
TTITLE23=Here I Am in Dallas
EXTD=
EXTT0=
EXTT1=
EXTT2=
EXTT3=
EXTT4=
EXTT5=
EXTT6=
EXTT7=
EXTT8=
EXTT9=
EXTT10=
EXTT11=
EXTT12=
EXTT13=
EXTT14=
EXTT15=
EXTT16=
EXTT17=
EXTT18=
EXTT19=
EXTT20=
EXTT21=
EXTT22=
EXTT23=
PLAYORDER=
